<?xml version="1.0" encoding="UTF-8" standalone="no"?>
<!-- Created with Inkscape (http://www.inkscape.org/) -->

<svg
   xmlns:svg="http://www.w3.org/2000/svg"
   xmlns="http://www.w3.org/2000/svg"
   version="1.1"
   width="230"
   height="126"
   id="svg2">
  <defs
     id="defs4" />
  <g
     transform="translate(-208.55952,-309.64343)"
     id="layer1">
    <path
       d="m 234.05507,328.58909 c -42.48109,40.52253 -18.03973,80.1911 8.75086,85.67039 l 3.283,-55.81093 -21.08693,8.33376 3.03045,6.18718 8.71257,-4.67195 0.50507,31.31472 c -10.65875,-3.74979 -30.13646,-30.14177 1.01016,-66.16499 l -4.20518,-4.85818 z"
       id="path2830"
       style="fill:#FFFFFF;stroke:none" />
    <path
       d="m 267.31128,330.67541 c -13.08335,20.30881 -18.2595,55.32198 -16.28125,78.3125 l 2.625,0.46875 9.46875,-34.84375 10.75,1 7.15625,41.65625 2.90625,-0.0312 c 6.71501,-26.41739 1.13031,-68.23298 -16.625,-86.5625 z m 1.625,23.34375 c 2.98125,4.84836 4.43296,10.13597 5.0625,15.65625 -3.08612,-0.0251 -6.11322,-0.58708 -9.03125,-2.125 0.32388,-5.10477 1.97579,-9.42794 3.96875,-13.53125 z"
       id="path3604"
       style="fill:#FFFFFF;fill-opacity:1;stroke:none" />
    <path
       d="m 294.57625,406.68333 -0.25254,-68.18529 2.23896,0.90832 34.37907,49.85184 19.95052,-39.64849 7.3236,3.53554 -22.98097,63.13453 -2.52538,0 -27.27412,-49.24494 2.52538,40.15357 -13.38452,-0.50508 z"
       id="path3608"
       style="fill:#FFFFFF;fill-opacity:1;stroke:none" />
    <path
       d="m 427.53758,328.0177 c 1.62242,1.11038 2.62399,2.46911 3.40927,3.91434 -7.91894,4.9122 -14.43527,9.67302 -18.68783,16.54125 4.27514,8.14132 15.36838,23.5558 23.80172,31.18846 -5.11368,18.66459 -17.11294,27.88507 -30.24144,36.23923 -1.65682,-0.82866 -2.67825,-2.20194 -3.15673,-4.04061 8.85603,-8.35387 16.82228,-15.65797 20.20305,-28.15801 -9.57758,-9.71444 -17.4322,-20.97955 -21.97081,-35.22907 6.98595,-7.81865 13.76224,-15.74796 26.64277,-20.45559 z"
       id="path3610"
       style="fill:#FFFFFF;fill-opacity:1;stroke:none" />
    <path
       d="m 389.05035,325.81117 c -37.46784,10.22959 -41.05381,79.37346 0.48024,86.0492 l 7.44988,-45.96194 -19.95051,0.12627 -1e-5,8.71256 7.19734,0.37881 -1.51523,24.74873 c -10.30611,-5.31151 -21.25142,-47.3747 6.06092,-66.41753 l 0.27737,-7.6361 z"
       id="path3615"
       style="fill:#FFFFFF;stroke:none" />
  </g>
</svg>
